<svg xmlns="http://www.w3.org/2000/svg" viewBox="0 0 256.44 216.22"><defs><style>.cls-1{fill:#fff;}</style></defs><title>logoWhiteWithWeb</title><g id="Layer_2" data-name="Layer 2"><g id="Crop_Marks" data-name="Crop Marks"><polygon class="cls-1" points="183.53 0 88.62 187.9 55.01 187.9 149.93 0 183.53 0"/><polygon class="cls-1" points="135.26 0 40.35 187.9 6.74 187.9 101.66 0 135.26 0"/><path class="cls-1" d="M229.62,6.25l-.24-1.6L228.69,0H198.12l-3.25,6.45L103.21,187.9h34.65l18.32-36.26H216.3l5.35,36.26h34.79Zm-55,108.87L202.7,59.53l8.21,55.59Z"/><path class="cls-1" d="M10.85,210.39h-2v-1.33c-.87,1-2.12,1.6-4.21,1.6-2.9,0-4.66-1.41-4.66-4,0-2.91,2-4.45,5.89-4.45h3V202c0-1.95-1.36-3.09-3.74-3.09a5.13,5.13,0,0,0-3.28,1.27L1,198.53a8.27,8.27,0,0,1,4.4-1.3c2.68,0,5.5,1.44,5.5,4.86ZM6.73,204c-3.53,0-4.62.6-4.62,2.55,0,1.55,1,2.53,2.8,2.53,2.36,0,4-2,4-4.81V204Z"/><path class="cls-1" d="M15.8,197.5v6.43c0,3.09,1.39,4.56,3.67,4.56h3.68v-11h2.07v12.89H19c-3.15,0-5.27-2.47-5.27-6.51V197.5Z"/><path class="cls-1" d="M31.07,194.11v3.39h3.44v1.9H31.07V206c.05,1.62.46,2.52,2.06,2.52H35.2v1.9h-2c-2.88-.06-4.15-1.71-4.15-4.45V194.11Z"/><path class="cls-1" d="M49.39,204a6.35,6.35,0,1,1-12.69.08,6.62,6.62,0,0,1,6.4-6.84A6.48,6.48,0,0,1,49.39,204Zm-10.53,0c0,2.69,1.9,5,4.26,5s4.21-2.28,4.21-5-1.9-5-4.21-5S38.86,201.3,38.86,204Z"/><path class="cls-1" d="M58.41,203.44v1.79h-6v-1.79Z"/><path class="cls-1" d="M69.09,200.21a3.64,3.64,0,0,0-2.71-1.27c-1.44,0-2.52.76-2.52,2.12s1.46,1.78,2.9,2.11c2.14.49,4,1.49,4,3.64v.05c0,2.39-1.57,3.83-4.88,3.83a5.75,5.75,0,0,1-4.34-2L63,207.38a3.57,3.57,0,0,0,2.91,1.6c1.89,0,2.63-.3,2.68-1.63,0-1.57-.92-1.87-2.58-2.31-2.6-.73-4-1.73-4-3.88,0-2.36,1.74-3.93,4.48-3.93a5.56,5.56,0,0,1,3.82,1.57Z"/><path class="cls-1" d="M73,216.22h-.89v-1.87h.81c1.82,0,2.87-.76,4.21-4L72,197.5h2.16l3.89,9.9,3.66-9.9h2.17L79,210.39C77.43,214.84,75.29,216.22,73,216.22Z"/><path class="cls-1" d="M93,200.21a3.64,3.64,0,0,0-2.71-1.27c-1.44,0-2.52.76-2.52,2.12s1.46,1.78,2.9,2.11c2.14.49,4,1.49,4,3.64v.05c0,2.39-1.57,3.83-4.88,3.83a5.78,5.78,0,0,1-4.34-2l1.52-1.35a3.56,3.56,0,0,0,2.9,1.6c1.9,0,2.63-.3,2.68-1.63,0-1.57-.91-1.87-2.57-2.31-2.61-.73-4-1.73-4-3.88,0-2.36,1.73-3.93,4.47-3.93a5.58,5.58,0,0,1,3.83,1.57Z"/><path class="cls-1" d="M99.84,209.36a1.36,1.36,0,0,1-1.38,1.35,1.34,1.34,0,0,1-1.36-1.35A1.37,1.37,0,0,1,98.46,208,1.39,1.39,0,0,1,99.84,209.36Z"/><path class="cls-1" d="M110.05,200.21a3.67,3.67,0,0,0-2.72-1.27c-1.43,0-2.52.76-2.52,2.12s1.46,1.78,2.9,2.11c2.15.49,4,1.49,4,3.64v.05c0,2.39-1.57,3.83-4.88,3.83a5.78,5.78,0,0,1-4.34-2l1.52-1.35a3.56,3.56,0,0,0,2.9,1.6c1.9,0,2.63-.3,2.69-1.63,0-1.57-.92-1.87-2.58-2.31-2.61-.73-4-1.73-4-3.88,0-2.36,1.73-3.93,4.47-3.93a5.58,5.58,0,0,1,3.83,1.57Z"/><path class="cls-1" d="M116.19,197.5v6.43c0,3.09,1.38,4.56,3.67,4.56h3.69v-11h2.06v12.89h-6.24c-3.15,0-5.27-2.47-5.27-6.51V197.5Z"/></g></g></svg>