<svg version="1.1" id="Layer_1" xmlns="http://www.w3.org/2000/svg" xmlns:xlink="http://www.w3.org/1999/xlink" x="0px" y="0px"
   viewBox="100 0 600 600" enable-background="new 0 0 600 600" xml:space="preserve">
<g>
  <path fill="#009AA2" d="M582.3,259.2c26.7,120.6,2.9,232.1-53.1,276.9c68.2-47.3,101.1-161,74.4-281.6
      c-26.4-120.9-104-210.1-185.9-224.2C487.4,46.9,555.6,138.6,582.3,259.2z"/>
  <path fill="#009AA2" d="M285.9,324.5c-31.4-142.6,7.2-272.9,87-294.2c-1.4,0.4-2.9,0.4-4.3,0.7C270.8,52.7,217,187.7,249.1,332.5
      c31.8,144.8,137.2,244.8,235.4,223.1c1.4-0.4,2.9-0.7,4.3-1.1C407.2,568.9,317.3,467.1,285.9,324.5z"/>
</g>
<g>
  <path fill="#009EE2" d="M382.7,382.8c-109.6-54.4-188.6-126.9-198.6-177.3c6.8,57.7,82.9,135.5,192.2,190s217.1,67.8,265.9,37.8
      C597,455.6,492,436.8,382.7,382.8z"/>
  <path fill="#009EE2" d="M466.7,209c129.6,64.2,216.4,154.3,196.8,202.6c0.4-0.7,1.1-1.4,1.4-2.5c27.8-57.3-56.2-156.4-187.6-221.7
      c-131.7-64.9-260.5-71.4-288.3-14.1c-0.4,0.7-0.7,1.8-1.1,2.5C213.6,130.4,337.1,144.8,466.7,209z"/>
</g>
<g>
  <path fill="#24B5BE" d="M311.9,442.9c-98.2-74.7-146.9-182.3-126-261.4c-30,91,11.9,206.8,110.1,281.9S517,549.1,597.1,496
      C526.4,537.2,409.8,518,311.9,442.9z"/>
  <path fill="#24B5BE" d="M529.2,158.8c116.2,88.8,163.2,222.7,107.2,301.8c1.1-1.4,2.2-2.5,3.2-4c71.8-93.9,34.7-243.3-83-333.2
      C439,33.2,285.2,36.5,213,130.3c-1.1,1.4-1.8,2.9-2.9,4.3C271.5,59.6,413.4,70,529.2,158.8z"/>
</g>
<g>
  <path fill="#3BB083" d="M291,170C374.4,78.7,484.5,38.6,559.9,65c-85.9-36.1-204-3.2-287.4,88.1c-83.4,91-105.8,211.5-62.1,293.8
      C177.6,374.4,208,261,291,170z"/>
  <path fill="#3BB083" d="M548,404.7c-98.6,107.9-234.6,144.4-306.5,83.4c1.1,1.1,2.2,2.2,3.6,3.2c84.8,77.6,234.6,51.6,334.6-57.8
      s112.6-261,27.4-338.6c-1.1-1.1-2.5-2.2-3.6-3.2C671.1,158.1,646.6,296.7,548,404.7z"/>
</g>
<g>
  <path fill="#8DADDB" d="M495.3,232.5c81.9,92.4,130.3,188.4,123.5,236.5c12.3-52.7-32.1-152.3-114.1-244.8
      c-81.6-92.8-175.1-149.1-228.9-143C324.2,80.1,413.4,139.7,495.3,232.5z"/>
  <path fill="#8DADDB" d="M363.9,348.4C267.2,239,217,124.5,250.2,90.6c-0.7,0.4-1.4,1.1-2.2,1.4c-43.3,38.3,1.1,159.6,99.6,270.7
      c98.2,111.2,213,170,256.7,131.4c0.7-0.7,1.1-1.1,1.8-1.8C568.2,521.6,461,458.1,363.9,348.4z"/>
</g>
<g>
  <path fill="#5FC5F1" d="M392.4,187.4C501.1,139,604,123.5,646.6,144.8c-45.5-28.2-150.5-17.3-259.2,31
      c-109,48.4-187.4,118.8-197.1,171.5C202.9,301.4,283.4,235.7,392.4,187.4z"/>
  <path fill="#5FC5F1" d="M432.5,429.2c-126.7,20.9-235.7,0.4-246.6-45.8c0,0.7,0,1.8,0.4,2.5c9.4,57,121.3,86.3,249.8,65
      s218-108.3,215.5-141.9c0-0.7-0.7-21.7-1.1-22.4C658.8,327.8,559.2,408.3,432.5,429.2z"/>
</g>
</svg>
